<svg width="100" height="113" viewBox="0 0 117 113" fill="none" xmlns="http://www.w3.org/2000/svg">
<path d="M63.4242 112.237H0L0 97.7171H50.1439V-5.34058e-05H63.4242V56.1186V112.237Z" fill="#B7733E"/>
<path d="M63.4242 112.237H0L0 97.7171H50.1439V-5.34058e-05H63.4242V56.1186V112.237Z" fill="#B7733E"/>
<path d="M46.156 94.2671H34.3486V91.7146H43.6837V74.5367H46.156V94.2671Z" fill="#B7733E"/>
<path d="M46.156 94.2671H34.3486V91.7146H43.6837V74.5367H46.156V94.2671Z" fill="#B7733E"/>
<path d="M6.97374e-06 42.2398L6.97374e-06 112.237L15.864 112.237L15.864 56.8965L117 56.8965V42.2398L6.97374e-06 42.2398Z" fill="#FB8122"/>
<path d="M6.97374e-06 42.2398L6.97374e-06 112.237L15.864 112.237L15.864 56.8965L117 56.8965V42.2398L6.97374e-06 42.2398Z" fill="#FB8122"/>
<rect x="32.2017" y="64.6721" width="6.44037" height="14.2497" fill="white"/>
<rect x="21" y="65" width="7" height="14" fill="white"/>
</svg>
